<?xml version="1.0" encoding="utf-8"?>
<?xml-stylesheet type="text/xsl" href="rss1.xsl"?>
<rss version="2.0" xmlns:atom="http://www.w3.org/2005/Atom" xmlns:content="http://purl.org/rss/1.0/modules/content/" xmlns:dc="http://purl.org/dc/elements/1.1/" xmlns:media="http://search.yahoo.com/mrss/">
<channel>
 <title>Getty</title>
 <link>http://www.gettyimg.com/</link>
 <atom:link href="http://www.gettyimg.com/" rel="self" type="application/rss+xml" />

 
                <item>
                <title><![CDATA[【HD Live Performances】HDTV - Mariah Carey (Good Morning America) 24.05.2013]]></title>
                <link><![CDATA[https://sharemania.us/threads/mariah-carey-good-morning-america-24-05-2013.240803/]]></link>
                <description><![CDATA[<article>
<blockquote class="messageText SelectQuoteContainer ugc baseHtml">
<b><span style="font-size: 18px">Mariah Carey - Good Morning America 2013<br>
</span><br>
<span style="font-size: 15px">#Beautiful ft. Miguel <br>
<img src="https://i.imgur.com/FqvaFdI.jpg" class="bbCodeImage LbImage" alt="[​IMG]" data-url="https://i.imgur.com/FqvaFdI.jpg" style=""> <br>
<img src="https://i.imgur.com/u9zHTQg.jpg" class="bbCodeImage LbImage" alt="[​IMG]" data-url="https://i.imgur.com/u9zHTQg.jpg" style=""> <br>
<div class="ToggleTriggerAnchor bbCodeSpoilerContainer">
<button type="button" class="button bbCodeSpoilerButton ToggleTrigger Tooltip JsOnly" data-target="> .SpoilerTarget"><span>Spoiler: <span class="SpoilerTitle">MediaInfo</span></span></button>
<div class="SpoilerTarget bbCodeSpoilerText">General<br>
Complete name : C:\Users\Admin\Videos\GMA2013\#Beautiful Live at Good Morning America 24.05.2013.mpg<br>
Format : MPEG-PS<br>
File size : 284 MiB<br>
Duration : 3 min 35 s<br>
Overall bit rate mode : Variable<br>
Overall bit rate : 11.0 Mb/s<br>
Movie name : GOOD MORNING AMERICA<br>
Law rating : None<br>
<br>
Video<br>
ID : 224 (0xE0)<br>
Format : MPEG Video<br>
Format version : Version 2<br>
Format profile : Main@High<br>
Format settings : CustomMatrix / BVOP<br>
Format settings, BVOP : Yes<br>
Format settings, Matrix : Custom<br>
Format settings, GOP : M=3, N=30<br>
Duration : 3 min 35 s<br>
Bit rate mode : Variable<br>
Bit rate : 10.4 Mb/s<br>
Maximum bit rate : 38.8 Mb/s<br>
Width : 1 280 pixels<br>
Height : 720 pixels<br>
Display aspect ratio : 16:9<br>
Frame rate : 59.940 (60000/1001) FPS<br>
Standard : Component<br>
Color space : YUV<br>
Chroma subsampling : 4:2:0<br>
Bit depth : 8 bits<br>
Scan type : Progressive<br>
Compression mode : Lossy<br>
Bits/(Pixel*Frame) : 0.189<br>
Time code of first frame : 14:37:05:30<br>
Time code source : Group of pictures header<br>
GOP, Open/Closed : Open<br>
Stream size : 268 MiB (94%)<br>
Color primaries : BT.709<br>
Transfer characteristics : BT.709<br>
Matrix coefficients : BT.709<br>
<br>
Audio<br>
ID : 189 (0xBD)-128 (0x80)<br>
Format : AC-3<br>
Format/Info : Audio Coding 3<br>
Commercial name : Dolby Digital<br>
Muxing mode : DVD-Video<br>
Duration : 3 min 35 s<br>
Bit rate mode : Constant<br>
Bit rate : 384 kb/s<br>
Channel(s) : 6 channels<br>
Channel layout : L R C LFE Ls Rs<br>
Sampling rate : 48.0 kHz<br>
Frame rate : 31.250 FPS (1536 SPF)<br>
Compression mode : Lossy<br>
Delay relative to video : -839 ms<br>
Stream size : 9.86 MiB (3%)<br>
Service kind : Complete Main<br>
<br>
Text #1<br>
ID : 224 (0xE0)-CC1<br>
Format : EIA-608<br>
Muxing mode : A/53 / DTVCC Transport<br>
Muxing mode, more info : Muxed in Video #1<br>
Duration : 3 min 34 s<br>
Duration of the visible conten : 3 min 27 s<br>
Start time (commands) : 1 h 49 min<br>
Start time : 1 h 49 min<br>
End time : 1 h 52 min<br>
Bit rate mode : Constant<br>
Stream size : 0.00 Byte (0%)<br>
Type of the first event : RollUp<br>
<br>
Text #2<br>
ID : 224 (0xE0)-1<br>
Format : EIA-708<br>
Muxing mode : A/53 / DTVCC Transport<br>
Muxing mode, more info : Muxed in Video #1<br>
Duration : 3 min 35 s<br>
Bit rate mode : Constant<br>
Stream size : 0.00 Byte (0%)<br>
<br>
Text #3<br>
ID : 224 (0xE0)-2<br>
Format : EIA-708<br>
Muxing mode : A/53 / DTVCC Transport<br>
Muxing mode, more info : Muxed in Video #1<br>
Duration : 3 min 35 s<br>
Bit rate mode : Constant<br>
Stream size : 0.00 Byte (0%)</div>
</div><br>
Always Be My Baby <br>
<img src="https://i.imgur.com/QbhzDV0.jpeg" class="bbCodeImage LbImage" alt="[​IMG]" data-url="https://i.imgur.com/QbhzDV0.jpeg" style=""> <br>
<img src="https://i.imgur.com/pEZemmy.jpg" class="bbCodeImage LbImage" alt="[​IMG]" data-url="https://i.imgur.com/pEZemmy.jpg" style=""> <br>
<div class="ToggleTriggerAnchor bbCodeSpoilerContainer">
<button type="button" class="button bbCodeSpoilerButton ToggleTrigger Tooltip JsOnly" data-target="> .SpoilerTarget"><span>Spoiler: <span class="SpoilerTitle">MediaInfo</span></span></button>
<div class="SpoilerTarget bbCodeSpoilerText">General<br>
Complete name : C:\Users\Admin\Videos\GMA2013\Always Be My Baby Live at Good Morning America 24.05.2013.mpg<br>
Format : MPEG-PS<br>
File size : 353 MiB<br>
Duration : 3 min 36 s<br>
Overall bit rate mode : Variable<br>
Overall bit rate : 13.7 Mb/s<br>
<br>
Video<br>
ID : 224 (0xE0)<br>
Format : MPEG Video<br>
Format version : Version 2<br>
Format profile : Main@High<br>
Format settings : CustomMatrix / BVOP<br>
Format settings, BVOP : Yes<br>
Format settings, Matrix : Custom<br>
Format settings, GOP : Variable<br>
Duration : 3 min 36 s<br>
Bit rate mode : Variable<br>
Bit rate : 13.0 Mb/s<br>
Maximum bit rate : 20.0 Mb/s<br>
Width : 1 280 pixels<br>
Height : 720 pixels<br>
Display aspect ratio : 16:9<br>
Frame rate : 59.940 (60000/1001) FPS<br>
Standard : NTSC<br>
Color space : YUV<br>
Chroma subsampling : 4:2:0<br>
Bit depth : 8 bits<br>
Scan type : Progressive<br>
Compression mode : Lossy<br>
Bits/(Pixel*Frame) : 0.236<br>
Time code of first frame : 00:00:01:18<br>
Time code source : Group of pictures header<br>
GOP, Open/Closed : Open<br>
Stream size : 336 MiB (95%)<br>
Color primaries : BT.601 NTSC<br>
Transfer characteristics : BT.601<br>
Matrix coefficients : BT.601<br>
<br>
Audio<br>
ID : 189 (0xBD)-128 (0x80)<br>
Format : AC-3<br>
Format/Info : Audio Coding 3<br>
Commercial name : Dolby Digital<br>
Muxing mode : DVD-Video<br>
Duration : 3 min 36 s<br>
Bit rate mode : Constant<br>
Bit rate : 384 kb/s<br>
Channel(s) : 6 channels<br>
Channel layout : L R C LFE Ls Rs<br>
Sampling rate : 48.0 kHz<br>
Frame rate : 31.250 FPS (1536 SPF)<br>
Compression mode : Lossy<br>
Delay relative to video : -74 ms<br>
Stream size : 9.89 MiB (3%)<br>
Service kind : Complete Main</div>
</div><br>
We Belong Together</span><br>
<span style="font-size: 15px"><img src="https://i.imgur.com/2hkrCoe.jpg" class="bbCodeImage LbImage" alt="[​IMG]" data-url="https://i.imgur.com/2hkrCoe.jpg" style=""> <br>
<img src="https://i.imgur.com/Nvz1wvp.jpg" class="bbCodeImage LbImage" alt="[​IMG]" data-url="https://i.imgur.com/Nvz1wvp.jpg" style=""> <br>
<div class="ToggleTriggerAnchor bbCodeSpoilerContainer">
<button type="button" class="button bbCodeSpoilerButton ToggleTrigger Tooltip JsOnly" data-target="> .SpoilerTarget"><span>Spoiler: <span class="SpoilerTitle">MediaInfo</span></span></button>
<div class="SpoilerTarget bbCodeSpoilerText">General<br>
Complete name : C:\Users\Admin\Videos\GMA2013\We Belong Together Live at Good Morning America 24.05.2013.mpg<br>
Format : MPEG-PS<br>
File size : 417 MiB<br>
Duration : 4 min 19 s<br>
Overall bit rate mode : Variable<br>
Overall bit rate : 13.5 Mb/s<br>
<br>
Video<br>
ID : 224 (0xE0)<br>
Format : MPEG Video<br>
Format version : Version 2<br>
Format profile : Main@High<br>
Format settings : CustomMatrix / BVOP<br>
Format settings, BVOP : Yes<br>
Format settings, Matrix : Custom<br>
Format settings, GOP : Variable<br>
Duration : 4 min 19 s<br>
Bit rate mode : Variable<br>
Bit rate : 12.8 Mb/s<br>
Maximum bit rate : 20.0 Mb/s<br>
Width : 1 280 pixels<br>
Height : 720 pixels<br>
Display aspect ratio : 16:9<br>
Frame rate : 59.940 (60000/1001) FPS<br>
Standard : NTSC<br>
Color space : YUV<br>
Chroma subsampling : 4:2:0<br>
Bit depth : 8 bits<br>
Scan type : Progressive<br>
Compression mode : Lossy<br>
Bits/(Pixel*Frame) : 0.232<br>
Time code of first frame : 00:00:13:19<br>
Time code source : Group of pictures header<br>
GOP, Open/Closed : Open<br>
Stream size : 397 MiB (95%)<br>
Color primaries : BT.601 NTSC<br>
Transfer characteristics : BT.601<br>
Matrix coefficients : BT.601<br>
<br>
Audio<br>
ID : 189 (0xBD)-128 (0x80)<br>
Format : AC-3<br>
Format/Info : Audio Coding 3<br>
Commercial name : Dolby Digital<br>
Muxing mode : DVD-Video<br>
Duration : 4 min 18 s<br>
Bit rate mode : Constant<br>
Bit rate : 384 kb/s<br>
Channel(s) : 6 channels<br>
Channel layout : L R C LFE Ls Rs<br>
Sampling rate : 48.0 kHz<br>
Frame rate : 31.250 FPS (1536 SPF)<br>
Compression mode : Lossy<br>
Delay relative to video : -135 ms<br>
Stream size : 11.9 MiB (3%)<br>
Service kind : Complete Main</div>
</div>
<div class="bbCodeBlock bbCodeVfcHH HiddenContent">
<div class="attribution type">Hidden Content:</div>
<blockquote>You must reply before you can see the hidden data contained here.</blockquote>
</div></span></b>
<div class="messageTextEndMarker">&nbsp;</div>
</blockquote>
</article>]]></description>
                <author><![CDATA[BERNXMRG]]></author>
                </item>

                
                <item>
                <title><![CDATA[【Requests】[REQ AUD] - Des'ree Singles and EPs in Lossless Format from Qobuz]]></title>
                <link><![CDATA[https://sharemania.us/threads/desree-singles-and-eps-in-lossless-format-from-qobuz.240805/]]></link>
                <description><![CDATA[<article>
<blockquote class="messageText SelectQuoteContainer ugc baseHtml">
Would anyone be willing to share the singles or EPs by Des'ree that are currently available on Qobuz in lossless format? Additionally, if you have any other singles by Des'ree, feel free to share those as well =)<br>
<br>
You Gotta Be 1<br>
<a href="https://www.qobuz.com/us-en/album/you-gotta-be-desree/0888880501356" target="_blank" class="externalLink" rel="nofollow">https://www.qobuz.com/us-en/album/you-gotta-be-desree/0888880501356</a><br>
<br>
You Gotta Be 2<br>
<a href="https://www.qobuz.com/us-en/album/you-gotta-be-desree/5099766683720" target="_blank" class="externalLink" rel="nofollow">https://www.qobuz.com/us-en/album/you-gotta-be-desree/5099766683720</a><br>
<br>
You Gotta Be 1999 Mix<br>
<a href="https://www.qobuz.com/us-en/album/you-gotta-be-desree/u7i654rsiq4kc" target="_blank" class="externalLink" rel="nofollow">https://www.qobuz.com/us-en/album/you-gotta-be-desree/u7i654rsiq4kc</a><br>
<br>
It's Okay<br>
<a href="https://www.qobuz.com/us-en/album/its-okay-desree/5099767319017" target="_blank" class="externalLink" rel="nofollow">https://www.qobuz.com/us-en/album/its-okay-desree/5099767319017</a><br>
<br>
Life <br>
<a href="https://www.qobuz.com/us-en/album/life-desree/5099766559421" target="_blank" class="externalLink" rel="nofollow">https://www.qobuz.com/us-en/album/life-desree/5099766559421</a><br>
<br>
Life (Special Radio Mix)<br>
<a href="https://www.qobuz.com/us-en/album/life-desree/mpnoo5g61uxcc" target="_blank" class="externalLink" rel="nofollow">https://www.qobuz.com/us-en/album/life-desree/mpnoo5g61uxcc</a><br>
<br>
Life (Radio Edit)<br>
<a href="https://www.qobuz.com/us-en/album/life-desree/n5y3rh4fmm2sc" target="_blank" class="externalLink" rel="nofollow">https://www.qobuz.com/us-en/album/life-desree/n5y3rh4fmm2sc</a><br>
<br>
I'm Kissing You<br>
<a href="https://www.qobuz.com/us-en/album/im-kissing-you-desree/agoqv16n5cotb" target="_blank" class="externalLink" rel="nofollow">https://www.qobuz.com/us-en/album/im-kissing-you-desree/agoqv16n5cotb</a><br>
<br>
Endangered Species<br>
<a href="https://www.qobuz.com/us-en/album/endangered-species-desree/5099750097427" target="_blank" class="externalLink" rel="nofollow">https://www.qobuz.com/us-en/album/endangered-species-desree/5099750097427</a>
<div class="messageTextEndMarker">&nbsp;</div>
</blockquote>
</article>]]></description>
                <author><![CDATA[jazon]]></author>
                </item>

                
                <item>
                <title><![CDATA[【Requests】[REQ AUD] - Sam Smith - In the Lonely Hour (Japan Edition) (2015) FLAC]]></title>
                <link><![CDATA[https://sharemania.us/threads/sam-smith-in-the-lonely-hour-japan-edition-2015-flac.240804/]]></link>
                <description><![CDATA[<article>
<blockquote class="messageText SelectQuoteContainer ugc baseHtml">
any has a ripped flac from japan version please??
<div class="messageTextEndMarker">&nbsp;</div>
</blockquote>
</article>]]></description>
                <author><![CDATA[FreshPrince]]></author>
                </item>

                </channel></rss>